<svg width="22" height="22" viewBox="0 0 22 22" fill="none" xmlns="http://www.w3.org/2000/svg">
<path d="M20.625 8.56625C20.6119 8.04237 20.196 7.62575 19.6852 7.56937C19.3177 7.57849 18.9508 7.60235 18.5852 7.64087C17.8867 7.71375 17.1799 7.83612 16.7193 7.99494C16.2965 8.14069 15.4337 8.52775 14.3241 9.04475C13.6984 9.33625 13.0041 9.66487 12.2767 10.0086C11.7198 10.2719 11.1444 10.5442 10.5662 10.8157C9.2345 11.4414 7.8925 12.0608 6.7595 12.5489C5.63888 13.0316 4.68531 13.4021 4.14838 13.5073C3.48563 13.6372 2.47225 13.7527 1.69881 13.7878C1.62915 13.9895 1.551 14.1877 1.46438 14.3825C1.4025 14.5062 1.375 14.6437 1.375 14.795C1.37862 15.0661 1.48886 15.3249 1.68186 15.5153C1.87487 15.7058 2.13511 15.8125 2.40625 15.8125C4.34019 15.8125 5.22431 15.4165 6.94856 14.6431L7.05375 14.5956L15.785 10.6631L16.2071 10.472C17.4439 9.911 18.073 9.625 19.5869 9.625C20.1712 9.625 20.6388 9.15062 20.625 8.56625Z" fill="white"/>
<path d="M18.5144 6.9575L18.6931 6.93962C17.4714 3.68775 14.333 1.375 10.6562 1.375C5.94686 1.375 2.06249 5.27313 2.06249 9.96875V11.7287C2.0611 12.1867 2.00712 12.643 1.90161 13.0886C2.59324 13.0453 3.44161 12.9449 4.01567 12.8329C4.46736 12.7442 5.3508 12.4066 6.48724 11.9178C7.60992 11.4345 8.94299 10.8178 10.274 10.1936C10.848 9.92406 11.4228 9.65181 11.979 9.38919L11.9804 9.3885C12.7098 9.04338 13.4083 8.71338 14.0339 8.42188C15.1312 7.91038 16.0304 7.50544 16.4952 7.34525C17.0314 7.15963 17.8 7.03175 18.5144 6.9575ZM12.9497 17.875L12.5372 16.4312H9.11624L9.62499 17.875H12.9497Z" fill="white"/>
<path d="M12.1584 15.0562H12.5537C13.1601 15.0562 13.7074 15.4632 13.8744 16.0497L14.2862 17.49C14.3467 17.6956 14.3581 17.9125 14.3194 18.1232C14.2807 18.334 14.1931 18.5328 14.0635 18.7034C13.882 18.9427 13.6262 19.1159 13.3416 19.1971L13.5919 20.075C13.6744 20.35 13.4681 20.625 13.1794 20.625H10.6975C10.5859 20.625 10.4774 20.5888 10.3881 20.5219C10.2989 20.4549 10.2337 20.3609 10.2025 20.2537L9.91649 19.25H9.62499C9.34225 19.2488 9.06661 19.1614 8.83491 18.9993C8.6032 18.8373 8.42648 18.6084 8.32837 18.3432L8.32562 18.3363L7.81137 16.8781L7.80862 16.8692C7.7397 16.6619 7.7209 16.4412 7.75377 16.2253C7.78663 16.0093 7.87022 15.8043 7.99768 15.6269C8.18025 15.3786 8.4395 15.1974 8.73537 15.1112L8.60474 14.6513L11.6504 13.2791L12.1584 15.0562ZM12.9662 18.5625H12.9779C13.0825 18.5597 13.1851 18.5336 13.2782 18.486C13.3714 18.4384 13.4527 18.3706 13.5162 18.2875C13.5803 18.2021 13.6236 18.103 13.6427 17.998C13.6617 17.893 13.6561 17.785 13.6262 17.6825L13.2137 16.2387C13.1711 16.0965 13.084 15.9717 12.9652 15.8826C12.8464 15.7935 12.7022 15.7448 12.5537 15.7437H9.11624C9.00631 15.7448 8.89813 15.7715 8.80028 15.8216C8.70243 15.8717 8.61759 15.9439 8.55249 16.0325C8.48864 16.122 8.44721 16.2256 8.43166 16.3344C8.4161 16.4433 8.42689 16.5543 8.46312 16.6581L8.97187 18.1019C8.97874 18.1211 8.98676 18.1401 8.99593 18.1589C9.11212 18.4023 9.35687 18.5625 9.62499 18.5625H12.9662Z" fill="white"/>
</svg>
