<svg width="22" height="22" viewBox="0 0 22 22" fill="none" xmlns="http://www.w3.org/2000/svg">
<path d="M17.9172 5.54039L5.54223 17.9154C5.4463 18.0113 5.33242 18.0874 5.20709 18.1393C5.08175 18.1912 4.94742 18.218 4.81176 18.218C4.6761 18.218 4.54177 18.1912 4.41643 18.1393C4.2911 18.0874 4.17722 18.0113 4.08129 17.9154C3.98537 17.8195 3.90927 17.7056 3.85736 17.5802C3.80544 17.4549 3.77872 17.3206 3.77872 17.1849C3.77872 17.0493 3.80544 16.9149 3.85736 16.7896C3.90927 16.6643 3.98537 16.5504 4.08129 16.4545L16.4563 4.07945C16.65 3.88572 16.9128 3.77688 17.1868 3.77688C17.4607 3.77688 17.7235 3.88572 17.9172 4.07945C18.111 4.27319 18.2198 4.53594 18.2198 4.80992C18.2198 5.0839 18.111 5.34666 17.9172 5.54039ZM4.10106 8.9607C3.539 8.39807 3.1894 7.65796 3.11185 6.86648C3.03429 6.07499 3.23357 5.2811 3.67573 4.62007C4.11789 3.95903 4.77557 3.47177 5.53672 3.24128C6.29787 3.0108 7.11538 3.05136 7.84998 3.35605C8.58457 3.66075 9.19079 4.21072 9.56534 4.91228C9.9399 5.61383 10.0596 6.42355 9.9041 7.20347C9.74857 7.98339 9.32744 8.68527 8.71245 9.1895C8.09745 9.69373 7.32665 9.96912 6.53137 9.96875C6.07973 9.96986 5.63236 9.88133 5.21519 9.7083C4.79801 9.53526 4.41932 9.28115 4.10106 8.9607ZM5.15637 6.53125C5.15622 6.84937 5.26639 7.1577 5.46809 7.4037C5.6698 7.6497 5.95056 7.81816 6.26254 7.88035C6.57452 7.94255 6.89842 7.89464 7.17904 7.7448C7.45966 7.59495 7.67964 7.35244 7.8015 7.05858C7.92335 6.76472 7.93955 6.4377 7.84732 6.13324C7.75508 5.82879 7.56014 5.56573 7.29569 5.38889C7.03125 5.21206 6.71367 5.13239 6.39707 5.16346C6.08047 5.19453 5.78444 5.33443 5.55942 5.5593C5.43122 5.68654 5.32958 5.83799 5.26039 6.00484C5.1912 6.17169 5.15584 6.35062 5.15637 6.53125ZM18.9064 15.4688C18.9063 16.264 18.6306 17.0347 18.1261 17.6494C17.6216 18.2641 16.9195 18.6849 16.1395 18.8401C15.3596 18.9952 14.5499 18.8751 13.8485 18.5003C13.1472 18.1254 12.5975 17.519 12.2931 16.7843C11.9887 16.0496 11.9485 15.2321 12.1793 14.471C12.4101 13.71 12.8976 13.0525 13.5588 12.6106C14.22 12.1688 15.0139 11.9698 15.8054 12.0476C16.5968 12.1255 17.3368 12.4753 17.8992 13.0376C18.2197 13.356 18.4737 13.7348 18.6466 14.1521C18.8195 14.5695 18.9078 15.017 18.9064 15.4688ZM16.8439 15.4688C16.8445 15.288 16.8092 15.1089 16.74 14.9419C16.6708 14.7749 16.5691 14.6233 16.4408 14.4959C16.2158 14.2711 15.9198 14.1312 15.6033 14.1001C15.2867 14.069 14.9692 14.1486 14.7047 14.3254C14.4403 14.5022 14.2453 14.7652 14.153 15.0696C14.0607 15.374 14.0768 15.701 14.1986 15.9948C14.3203 16.2887 14.5402 16.5312 14.8207 16.6812C15.1013 16.8311 15.4251 16.8792 15.7371 16.8171C16.049 16.7551 16.3299 16.5868 16.5317 16.3409C16.7335 16.0951 16.8438 15.7868 16.8439 15.4688Z" fill="white"/>
</svg>
