<svg width="22" height="22" viewBox="0 0 22 22" fill="none" xmlns="http://www.w3.org/2000/svg">
<g clip-path="url(#clip0_159_1722)">
<path d="M18.3332 12.8333C18.6863 12.8335 19.0259 12.9695 19.2814 13.2132C19.537 13.4569 19.689 13.7895 19.706 14.1423C19.7229 14.495 19.6035 14.8407 19.3726 15.1078C19.1416 15.3749 18.8167 15.5428 18.4652 15.5769L18.3332 15.5833H6.98581L8.30581 16.9033C8.55584 17.1525 8.7005 17.4882 8.70981 17.8411C8.71913 18.1939 8.5924 18.5368 8.35586 18.7988C8.11932 19.0608 7.79109 19.2218 7.43913 19.2484C7.08717 19.2751 6.73844 19.1654 6.46514 18.942L6.36064 18.8476L2.85072 15.3367C1.95789 14.4439 2.53906 12.9378 3.75914 12.8388L3.88747 12.8333H18.3332ZM13.6949 3.15333C13.9354 2.91261 14.2566 2.76962 14.5964 2.75201C14.9363 2.7344 15.2705 2.84342 15.5346 3.058L15.6391 3.15241L19.1491 6.66325C20.0419 7.55608 19.4607 9.06216 18.2406 9.16116L18.1123 9.16666H3.66656C3.31344 9.16649 2.97393 9.03047 2.71837 8.78679C2.46281 8.54311 2.3108 8.21045 2.29383 7.85774C2.27686 7.50503 2.39623 7.15932 2.62722 6.89223C2.8582 6.62514 3.18309 6.45715 3.53456 6.42308L3.66656 6.41666H15.014L13.694 5.09666C13.4365 4.83885 13.2919 4.48937 13.2919 4.125C13.2919 3.76062 13.4374 3.41114 13.6949 3.15333Z" fill="white"/>
</g>
<defs>
<clipPath id="clip0_159_1722">
<rect width="22" height="22" fill="white"/>
</clipPath>
</defs>
</svg>
