<svg width="22" height="22" viewBox="0 0 22 22" fill="none" xmlns="http://www.w3.org/2000/svg">
<path d="M15.5833 12.8333H17.4166V15.5833H20.1666V17.4167H17.4166V20.1667H15.5833V17.4167H12.8333V15.5833H15.5833V12.8333ZM10.5416 0.916664L19.2499 5.5V7.33333H1.83325V5.5L10.5416 0.916664ZM14.6666 9.16666H17.4166V11.0733L16.4999 11C15.8583 11 15.2441 11.11 14.6666 11.3117V9.16666ZM1.83325 20.1667V17.4167H11.0733C11.2474 18.4617 11.7241 19.4058 12.4024 20.1667H1.83325ZM9.16659 9.16666H11.9166V13.4567C11.4949 14.0892 11.2016 14.8042 11.0733 15.5833H9.16659V9.16666ZM3.66659 9.16666H6.41659V15.5833H3.66659V9.16666Z" fill="white"/>
</svg>
