<svg width="22" height="22" viewBox="0 0 22 22" fill="none" xmlns="http://www.w3.org/2000/svg">
<path d="M4.58333 19.25C4.07917 19.25 3.64772 19.0706 3.289 18.7119C2.93028 18.3532 2.75061 17.9214 2.75 17.4167V3.66667C2.75 3.40695 2.838 3.18939 3.014 3.014C3.19 2.83861 3.40756 2.75061 3.66667 2.75C3.92578 2.74939 4.14364 2.83739 4.32025 3.014C4.49686 3.19061 4.58456 3.40817 4.58333 3.66667V17.4167H18.3333C18.5931 17.4167 18.8109 17.5047 18.9869 17.6807C19.1629 17.8567 19.2506 18.0742 19.25 18.3333C19.2494 18.5924 19.1614 18.8103 18.986 18.9869C18.8106 19.1635 18.5931 19.2512 18.3333 19.25H4.58333ZM6.41667 16.5C6.15694 16.5 5.93939 16.412 5.764 16.236C5.58861 16.06 5.50061 15.8424 5.5 15.5833V9.16667C5.5 8.90695 5.588 8.68939 5.764 8.514C5.94 8.33861 6.15756 8.25061 6.41667 8.25H8.25C8.50972 8.25 8.72758 8.338 8.90358 8.514C9.07958 8.69 9.16728 8.90756 9.16667 9.16667V15.5833C9.16667 15.8431 9.07867 16.0609 8.90267 16.2369C8.72667 16.4129 8.50911 16.5006 8.25 16.5H6.41667ZM11 16.5C10.7403 16.5 10.5227 16.412 10.3473 16.236C10.1719 16.06 10.0839 15.8424 10.0833 15.5833V4.58334C10.0833 4.32361 10.1713 4.10606 10.3473 3.93067C10.5233 3.75528 10.7409 3.66728 11 3.66667H12.8333C13.0931 3.66667 13.3109 3.75467 13.4869 3.93067C13.6629 4.10667 13.7506 4.32423 13.75 4.58334V15.5833C13.75 15.8431 13.662 16.0609 13.486 16.2369C13.31 16.4129 13.0924 16.5006 12.8333 16.5H11ZM15.5833 16.5C15.3236 16.5 15.1061 16.412 14.9307 16.236C14.7553 16.06 14.6673 15.8424 14.6667 15.5833V12.8333C14.6667 12.5736 14.7547 12.3561 14.9307 12.1807C15.1067 12.0053 15.3242 11.9173 15.5833 11.9167H17.4167C17.6764 11.9167 17.8942 12.0047 18.0702 12.1807C18.2463 12.3567 18.3339 12.5742 18.3333 12.8333V15.5833C18.3333 15.8431 18.2453 16.0609 18.0693 16.2369C17.8933 16.4129 17.6758 16.5006 17.4167 16.5H15.5833Z" fill="white"/>
</svg>
