<svg width="22" height="22" viewBox="0 0 22 22" fill="none" xmlns="http://www.w3.org/2000/svg">
<path d="M4.39705 4.5012C4.39705 4.5012 4.67279 2.9436 5.86372 2.9436H7.33919V2.53293C7.33919 2.33844 7.41645 2.15191 7.55397 2.01439C7.6915 1.87686 7.87803 1.7996 8.07252 1.7996H13.9157C14.1102 1.7996 14.2967 1.87686 14.4343 2.01439C14.5718 2.15191 14.6491 2.33844 14.6491 2.53293V2.9436H16.1304C16.3083 2.9425 16.4843 2.98041 16.6459 3.05466C16.8076 3.1289 16.951 3.23768 17.0661 3.37333C17.3326 3.70027 17.5149 4.08751 17.5971 4.5012C17.5971 4.5012 18.0532 6.8068 18.4653 8.78093H17.0896L16.1333 4.4L5.84025 4.39413L4.88985 8.77946H3.49359L4.39705 4.5012ZM20.5304 11.7084C20.5304 12.0971 20.3761 12.47 20.1013 12.745C19.8266 13.02 19.4539 13.1747 19.0652 13.1751L17.5985 19.0021C17.5985 19.0021 17.3228 20.5304 16.1319 20.5304H5.86519C4.67279 20.5304 4.39852 19.0021 4.39852 19.0021L2.90545 13.1707C2.52491 13.156 2.16504 12.9937 1.9021 12.7182C1.63916 12.4427 1.49382 12.0756 1.49687 11.6948C1.49992 11.314 1.65113 10.9493 1.91845 10.6781C2.18576 10.4068 2.54819 10.2503 2.92892 10.2417H19.0623C19.4512 10.2417 19.8243 10.3963 20.0993 10.6713C20.3744 10.9464 20.5289 11.3194 20.5289 11.7084M7.38172 17.7907L7.37732 16.1407L6.80532 13.8879C6.79145 13.7852 6.7575 13.6863 6.7054 13.5967C6.6533 13.5072 6.58408 13.4288 6.50168 13.366C6.41929 13.3032 6.32533 13.2573 6.22518 13.2308C6.12503 13.2044 6.02064 13.1979 5.91799 13.2117C5.81533 13.2256 5.71641 13.2596 5.62687 13.3116C5.53733 13.3637 5.45893 13.433 5.39615 13.5154C5.33336 13.5978 5.28742 13.6917 5.26095 13.7919C5.23447 13.892 5.22798 13.9964 5.24185 14.0991L5.54399 16.1451L5.81825 18.0033C5.84645 18.2107 5.95586 18.3983 6.12241 18.525C6.28895 18.6516 6.49899 18.7069 6.70632 18.6787C6.91365 18.6505 7.10128 18.5411 7.22794 18.3746C7.35461 18.208 7.40992 17.998 7.38172 17.7907ZM10.3151 13.9817C10.3151 13.8789 10.2948 13.7772 10.2554 13.6822C10.216 13.5873 10.1583 13.5011 10.0856 13.4284C10.0128 13.3558 9.92647 13.2983 9.83146 13.2591C9.73645 13.2199 9.63463 13.1998 9.53185 13.2H9.51719C9.41942 13.1998 9.3226 13.2192 9.23243 13.257C9.14226 13.2947 9.06056 13.3502 8.99212 13.42C8.91571 13.4926 8.85486 13.5799 8.81326 13.6767C8.77166 13.7736 8.75018 13.8778 8.75012 13.9832V17.9139C8.75012 18.1214 8.83256 18.3204 8.9793 18.4672C9.12604 18.6139 9.32506 18.6963 9.53259 18.6963C9.74011 18.6963 9.93913 18.6139 10.0859 18.4672C10.2326 18.3204 10.3151 18.1214 10.3151 17.9139V13.9817ZM13.2455 13.9817C13.2453 13.8255 13.198 13.6729 13.1098 13.544C13.0217 13.415 12.8967 13.3156 12.7512 13.2587C12.6601 13.2197 12.5621 13.1997 12.463 13.1997C12.3639 13.1997 12.2659 13.2197 12.1748 13.2587C12.0293 13.3156 11.9043 13.415 11.8161 13.544C11.728 13.6729 11.6807 13.8255 11.6805 13.9817V17.9124C11.6805 18.1199 11.763 18.3189 11.9097 18.4657C12.0564 18.6124 12.2555 18.6949 12.463 18.6949C12.6705 18.6949 12.8695 18.6124 13.0163 18.4657C13.163 18.3189 13.2455 18.1199 13.2455 17.9124V13.9817ZM16.7435 14.0991C16.7573 13.9965 16.7508 13.8922 16.7244 13.7921C16.698 13.6921 16.6521 13.5982 16.5894 13.5159C16.5267 13.4336 16.4483 13.3644 16.3589 13.3123C16.2694 13.2603 16.1706 13.2263 16.0681 13.2125C15.9655 13.1986 15.8612 13.2051 15.7611 13.2315C15.6611 13.2579 15.5672 13.3038 15.4849 13.3665C15.4025 13.4293 15.3334 13.5076 15.2813 13.597C15.2293 13.6865 15.1953 13.7853 15.1815 13.8879L14.608 16.1245L14.6051 17.7907C14.5911 17.8932 14.5975 17.9975 14.6238 18.0976C14.6502 18.1977 14.696 18.2917 14.7586 18.3741C14.8213 18.4565 14.8995 18.5257 14.9889 18.5779C15.0783 18.63 15.1772 18.664 15.2797 18.678C15.3823 18.692 15.4866 18.6856 15.5867 18.6592C15.6868 18.6329 15.7807 18.5871 15.8631 18.5244C15.9455 18.4618 16.0148 18.3835 16.0669 18.2941C16.1191 18.2047 16.1531 18.1059 16.1671 18.0033L16.7435 14.0991Z" fill="white"/>
</svg>
