<svg width="14" height="14" viewBox="0 0 14 14" fill="none" xmlns="http://www.w3.org/2000/svg">
<path fill-rule="evenodd" clip-rule="evenodd" d="M7.00036 3.34126C4.9795 3.34126 3.34126 4.9795 3.34126 7.00036C3.34126 9.02121 4.9795 10.6594 7.00036 10.6594C9.02121 10.6594 10.6594 9.02121 10.6594 7.00036C10.6594 4.9795 9.02121 3.34126 7.00036 3.34126ZM2.38672 7.00036C2.38672 4.45231 4.45231 2.38672 7.00036 2.38672C9.5484 2.38672 11.614 4.45231 11.614 7.00036C11.614 9.5484 9.5484 11.614 7.00036 11.614C4.45231 11.614 2.38672 9.5484 2.38672 7.00036Z" fill="#E1E1E1"/>
<path fill-rule="evenodd" clip-rule="evenodd" d="M7 0C7.35145 0 7.63636 0.28491 7.63636 0.636364V0.687273C7.63636 1.03873 7.35145 1.32364 7 1.32364C6.64855 1.32364 6.36364 1.03873 6.36364 0.687273V0.636364C6.36364 0.28491 6.64855 0 7 0ZM2.00639 2.00639C2.2549 1.75787 2.65783 1.75787 2.90634 2.00639L2.98907 2.08911C3.23758 2.33763 3.23758 2.74055 2.98907 2.98907C2.74055 3.23758 2.33763 3.23758 2.08911 2.98907L2.00639 2.90634C1.75787 2.65783 1.75787 2.2549 2.00639 2.00639ZM11.9936 2.00639C12.2421 2.2549 12.2421 2.65782 11.9936 2.90634L11.9109 2.98907C11.6624 3.23758 11.2594 3.23758 11.0109 2.98907C10.7624 2.74055 10.7624 2.33763 11.0109 2.08911L11.0937 2.00639C11.3422 1.75787 11.7451 1.75787 11.9936 2.00639ZM0 7C0 6.64855 0.28491 6.36364 0.636364 6.36364H0.687273C1.03873 6.36364 1.32364 6.64855 1.32364 7C1.32364 7.35145 1.03873 7.63636 0.687273 7.63636H0.636364C0.28491 7.63636 0 7.35145 0 7ZM12.6764 7C12.6764 6.64855 12.9613 6.36364 13.3127 6.36364H13.3636C13.7151 6.36364 14 6.64855 14 7C14 7.35145 13.7151 7.63636 13.3636 7.63636H13.3127C12.9613 7.63636 12.6764 7.35145 12.6764 7ZM2.98907 11.0109C3.23758 11.2594 3.23758 11.6624 2.98907 11.9109L2.90634 11.9936C2.65782 12.2421 2.2549 12.2421 2.00639 11.9936C1.75787 11.7451 1.75787 11.3422 2.00639 11.0937L2.08911 11.0109C2.33763 10.7624 2.74055 10.7624 2.98907 11.0109ZM11.0109 11.0109C11.2594 10.7624 11.6624 10.7624 11.9109 11.0109L11.9936 11.0937C12.2421 11.3422 12.2421 11.7451 11.9936 11.9936C11.7451 12.2421 11.3422 12.2421 11.0937 11.9936L11.0109 11.9109C10.7624 11.6624 10.7624 11.2594 11.0109 11.0109ZM7 12.6764C7.35145 12.6764 7.63636 12.9613 7.63636 13.3127V13.3636C7.63636 13.7151 7.35145 14 7 14C6.64855 14 6.36364 13.7151 6.36364 13.3636V13.3127C6.36364 12.9613 6.64855 12.6764 7 12.6764Z" fill="#E1E1E1"/>
</svg>
